<svg width="200" height="54" viewBox="0 0 200 54" fill="none" xmlns="http://www.w3.org/2000/svg">
<g clip-path="url(#clip0_75_5258)">
<path fill-rule="evenodd" clip-rule="evenodd" d="M52.8314 26.8372C52.8314 41.3962 41.0087 53.1949 26.4209 53.1949C12.5807 53.1949 1.22776 42.5751 0.101562 29.0512H35.0135V24.6184H0.101562C1.22776 11.0993 12.5807 0.479492 26.4209 0.479492C41.0087 0.479492 52.8314 12.2782 52.8314 26.8372ZM150.753 48.4218C159.906 48.4218 165.906 43.4905 165.906 36.0624C165.906 29.1711 161.387 25.9027 154.558 24.7765L148.495 23.7653C143.861 22.9938 140.77 20.9714 140.77 16.5194C140.77 12.005 144.216 8.55933 150.753 8.55933C157.112 8.55933 160.38 11.7654 160.735 16.342H165.312C164.957 10.2798 160.318 4.87404 150.81 4.87404C141.422 4.87404 136.251 10.16 136.251 16.6967C136.251 23.6455 140.948 26.8564 147.364 27.9251L153.484 28.8739C158.593 29.7653 161.449 31.8452 161.449 36.2397C161.449 41.4106 157.232 44.7365 150.81 44.7365C144.154 44.7365 139.994 41.5304 139.639 36.0624H135.125C135.48 43.1934 140.948 48.4218 150.753 48.4218ZM83.2817 47.5879H66.6428V5.76541H82.6875C89.7609 5.76541 94.6922 9.92514 94.6922 16.5769C94.6922 21.3883 91.9606 24.5992 87.5612 25.6679V25.8452C92.7896 26.8564 96.0005 30.4219 96.0005 36.0049C96.0005 43.1934 90.7098 47.5879 83.2817 47.5879ZM82.0932 24.12C87.1443 24.12 90.2353 21.3883 90.2353 17.1088V16.5146C90.2353 12.235 87.1443 9.56571 82.0932 9.56571H71.0996V24.12H82.0932ZM82.6299 43.7876C88.1555 43.7876 91.5436 40.7589 91.5436 36.1247V35.5305C91.5436 30.719 88.098 27.8052 82.5676 27.8052H71.0996V43.7876H82.6299ZM131.996 47.5879H127.242L123.676 36.2397H107.037L103.472 47.5879H98.9573L112.687 5.76541H118.093L131.996 47.5879ZM115.591 10.3373H115.237L108.226 32.4969H122.55L115.591 10.3373ZM172.601 47.5879V5.76541H199.462V9.62801H177.058V24.0049H197.679V27.8052H177.058V43.7253H199.462V47.5879H172.601Z" fill="white"/>
</g>
<defs>
<clipPath id="clip0_75_5258">
<rect width="199.36" height="52.7154" fill="white" transform="translate(0.101562 0.479492)"/>
</clipPath>
</defs>
</svg>
