<svg width="84" height="84" viewBox="0 0 84 84" fill="none" xmlns="http://www.w3.org/2000/svg">
<g id="Frame 4717">
<path id="Vector" d="M41.9988 84C50.3043 84 58.426 81.5378 65.3324 76.923C72.2387 72.3057 77.6226 65.7485 80.8015 58.073C83.9803 50.3975 84.8124 41.9529 83.1928 33.8076C81.5705 25.6596 77.5701 18.1758 71.698 12.3011C65.8232 6.42899 58.3394 2.42851 50.1914 0.806267C42.0461 -0.813351 33.6015 0.0187582 25.9261 3.19762C18.2506 6.37648 11.6934 11.7603 7.07603 18.6667C2.4613 25.573 -0.000976562 33.6947 -0.000976562 42.0002C-0.000976562 53.138 4.42477 63.8217 12.2997 71.6993C20.1773 79.5743 30.861 84 41.9988 84Z" fill="#0052FF"/>
<path id="Vector_2" d="M41.8996 71.5785C58.2349 71.5785 71.478 58.3355 71.478 42.0001C71.478 25.6648 58.2349 12.4218 41.8996 12.4218C26.4042 12.4218 13.6914 24.3418 12.4262 39.5117H56.316V44.4361H12.4209C13.6599 59.6322 26.3859 71.5785 41.8996 71.5785Z" fill="white"/>
</g>
</svg>
