<svg width="74" height="84" viewBox="0 0 74 84" fill="none" xmlns="http://www.w3.org/2000/svg">
<path id="Vector" d="M14.709 12.8663L36.9997 0L59.2905 12.8663L51.0953 17.6195L36.9997 9.50635L22.9042 17.6195L14.709 12.8663ZM59.2905 29.0927L51.0953 24.3395L36.9997 32.4527L22.9042 24.3395L14.709 29.0927V38.599L28.8046 46.712V62.9384L36.9997 67.6917L45.195 62.9384V46.712L59.2905 38.599V29.0927ZM59.2905 54.8254V45.319L51.0953 50.072V59.5784L59.2905 54.8254ZM65.1089 58.1854L51.0134 66.2984V75.8047L73.3042 62.9384V37.2057L65.1089 41.959V58.1854ZM56.914 20.9795L65.1089 25.7327V35.239L73.3042 30.4858V20.9795L65.1089 16.2263L56.914 20.9795ZM28.8046 69.7406V79.247L36.9997 84L45.195 79.247V69.7406L36.9997 74.4936L28.8046 69.7406ZM14.709 54.8254L22.9042 59.5784V50.072L14.709 45.319V54.8254ZM28.8046 20.9795L36.9997 25.7327L45.195 20.9795L36.9997 16.2263L28.8046 20.9795ZM8.89042 25.7327L17.0856 20.9795L8.89042 16.2263L0.695312 20.9795V30.4858L8.89042 35.239V25.7327ZM8.89042 41.959L0.695312 37.2057V62.9384L22.986 75.8047V66.2984L8.89042 58.1854V41.959Z" fill="#F0B90B"/>
</svg>
