<svg width="142" height="118" viewBox="0 0 142 118" fill="none" xmlns="http://www.w3.org/2000/svg">
<g id="Frame 4938">
<g id="Group 577">
<g id="Group 570">
<path id="Rectangle 4413" d="M129.692 56.2727L129.692 0.0909157C99.1359 0.090917 74.365 24.8618 74.365 55.4183L74.365 56.2727L129.692 56.2727Z" fill="#3672F8"/>
<path id="Rectangle 4414" d="M129.692 56L129.692 117.636C99.1359 117.636 74.365 92.8655 74.365 62.309L74.365 56L129.692 56Z" fill="#3672F8"/>
</g>
<circle id="Ellipse 931" cx="70.6813" cy="59" r="43.6364" fill="white"/>
<path id="Rectangle 4412" d="M11.999 56.2727L11.999 0.0909119C42.5555 0.0909105 67.3264 24.8618 67.3264 55.4182L67.3264 56.2727L11.999 56.2727Z" fill="#3672F8"/>
<g id="Group 571">
<path id="Rectangle 4413_2" d="M12.123 56.2727L12.123 117.909C42.6795 117.909 67.4504 93.1382 67.4504 62.5817L67.4504 56.2727L12.123 56.2727Z" fill="#3672F8"/>
</g>
</g>
</g>
</svg>
