<svg width="243" height="241" viewBox="0 0 243 241" fill="none" xmlns="http://www.w3.org/2000/svg">
<rect width="243" height="240.868" rx="120.434" fill="#3672F8"/>
<path d="M165.88 64.351H76.9858V117.104H113.206C142.296 117.104 165.88 93.4868 165.88 64.351Z" fill="white"/>
<path d="M113.315 123.26H77.1001V176.014H166C165.995 146.883 142.41 123.26 113.315 123.26Z" fill="white"/>
<path fill-rule="evenodd" clip-rule="evenodd" d="M113 47H103V71H113V47ZM113 169H103V193H113V169ZM129 47H139V71H129V47ZM139 169H129V193H139V169Z" fill="white"/>
<path d="M82 35.8301C82 33.6289 79.7398 32.1598 77.7699 33.1421C45.8951 49.0372 24 81.9617 24 120C24 158.038 45.8951 190.963 77.7699 206.858C79.7398 207.84 82 206.371 82 204.17C82 202.993 81.3195 201.925 80.2673 201.397C50.4599 186.452 30 155.615 30 120C30 84.3849 50.4599 53.5484 80.2673 38.6031C81.3195 38.0755 82 37.0071 82 35.8301Z" fill="white"/>
<path d="M160 204.17C160 202.993 160.68 201.925 161.733 201.397C191.54 186.452 212 155.615 212 120C212 84.3849 191.54 53.5484 161.733 38.6031C160.68 38.0755 160 37.0071 160 35.8301C160 33.6289 162.26 32.1598 164.23 33.1421C196.105 49.0372 218 81.9617 218 120C218 158.038 196.105 190.963 164.23 206.858C162.26 207.84 160 206.371 160 204.17Z" fill="white"/>
</svg>
