<svg width="224" height="80" viewBox="0 0 224 80" fill="none" xmlns="http://www.w3.org/2000/svg">
<g id="Liquity  Interest-free Borrowing on Ethereum 1">
<path id="Vector" d="M80.8203 52.7785H98.3928V48.2199H86.0308V22.6917H80.8203V52.7785Z" fill="white"/>
<path id="Vector_2" d="M107.558 30.3402H102.501V52.7787H107.558V30.3402ZM105.055 26.6427C106.741 26.6427 108.223 25.2245 108.223 23.5023C108.223 21.7802 106.741 20.4126 105.055 20.4126C103.318 20.4126 101.837 21.7802 101.837 23.5023C101.837 25.2245 103.318 26.6427 105.055 26.6427Z" fill="white"/>
<path id="Vector_3" d="M133.491 31.505C131.192 30.5426 128.025 29.8335 124.909 29.8335C116.889 29.8335 111.883 34.3921 111.883 41.5846C111.883 49.0303 116.889 53.2851 124.194 53.2851C125.982 53.2851 127.616 52.9305 128.485 52.5759V61.8958H133.491V31.505ZM128.485 48.2199C127.207 48.6758 126.135 48.929 124.5 48.929C119.954 48.929 116.991 46.0419 116.991 41.5846C116.991 36.9247 120.005 34.2908 124.909 34.2908C126.288 34.2908 127.463 34.544 128.485 34.848V48.2199Z" fill="white"/>
<path id="Vector_4" d="M157.807 30.3401H152.801V48.8278C151.473 49.0304 150.042 49.1317 148.919 49.1317C145.598 49.1317 143.555 47.9161 143.555 44.5731V30.3401H138.549V44.9277C138.549 51.2084 142.533 53.2852 149.021 53.2852C151.677 53.2852 155.151 52.9306 157.807 52.2721V30.3401Z" fill="white"/>
<path id="Vector_5" d="M169.345 30.3402H164.288V52.7787H169.345V30.3402ZM166.843 26.6427C168.528 26.6427 170.01 25.2245 170.01 23.5023C170.01 21.7802 168.528 20.4126 166.843 20.4126C165.106 20.4126 163.624 21.7802 163.624 23.5023C163.624 25.2245 165.106 26.6427 166.843 26.6427Z" fill="white"/>
<path id="Vector_6" d="M173.18 34.5443H176.602V46.346C176.602 51.4618 179.718 53.2853 183.396 53.2853C185.542 53.2853 187.381 52.8294 188.862 52.0696V47.5617C187.483 48.3721 186.206 48.8279 184.725 48.8279C182.783 48.8279 181.609 47.9162 181.609 45.2317V34.5443H188.045V30.3402H181.609V24.8699H176.602V30.3402H173.18V34.5443Z" fill="white"/>
<path id="Vector_7" d="M195.19 30.3401H189.775L199.124 53.7916L195.956 61.8959H200.911L213.171 30.3401H207.961L201.626 48.0174L195.19 30.3401Z" fill="white"/>
<path id="Vector_8" d="M34.581 63.0536C47.4469 63.0536 57.8768 52.6237 57.8768 39.7577C57.8768 26.8918 47.4469 16.4619 34.581 16.4619C21.7151 16.4619 11.2852 26.8918 11.2852 39.7577C11.2852 52.6237 21.7151 63.0536 34.581 63.0536Z" fill="#2EB6EA"/>
<path id="Vector_9" d="M34.4554 63.0534C11.2861 63.0534 2.14194 32.5729 22.6073 19.7275C20.1735 45.203 33.1205 45.7665 45.1348 45.203C65.2666 44.2587 65.2801 63.0534 65.2801 63.0534H34.4554Z" fill="#1542CD"/>
<path id="Vector_10" fill-rule="evenodd" clip-rule="evenodd" d="M56.6013 47.3784C53.0965 56.3613 44.4777 62.7848 34.3232 63.0707C34.5619 63.0773 34.8021 63.0807 35.0439 63.0807H65.675C65.675 63.0807 65.6671 52.0648 56.6013 47.3784Z" fill="#745DDF"/>
</g>
</svg>
