<svg width="246" height="34" viewBox="0 0 246 34" fill="none" xmlns="http://www.w3.org/2000/svg">
<g id="Group 572">
<g id="Group 571">
<g id="Base Lend">
<path d="M37 2.92798H53.3795C55.3803 2.92798 57.1196 3.14376 58.5974 3.57531C60.0882 3.99379 61.324 4.57574 62.3049 5.32115C63.2857 6.06657 64.0115 6.95583 64.4822 7.98895C64.9661 9.00899 65.208 10.114 65.208 11.3041C65.208 13.2526 64.5934 14.9592 63.3641 16.4239C64.7765 17.2609 65.8292 18.3463 66.5223 19.6802C67.2154 21.0141 67.562 22.5311 67.562 24.2311C67.562 25.6566 67.32 26.9447 66.8362 28.0955C66.3654 29.2463 65.6396 30.2337 64.6588 31.0576C63.6911 31.8684 62.4618 32.4961 60.971 32.9407C59.4932 33.3723 57.7474 33.588 55.7334 33.588H37V2.92798ZM55.7727 14.6977C56.3088 14.6977 56.8319 14.7173 57.342 14.7565C58.2181 13.9196 58.6562 12.9649 58.6562 11.8926C58.6562 10.781 58.2181 9.92441 57.342 9.32285C56.4788 8.70821 55.2103 8.40089 53.5364 8.40089H43.2183V14.6977H55.7727ZM55.8904 28.174C57.5643 28.174 58.8328 27.8144 59.6959 27.0951C60.5721 26.3758 61.0102 25.3623 61.0102 24.0546C61.0102 22.7468 60.5721 21.7268 59.6959 20.9945C58.8328 20.2621 57.5643 19.896 55.8904 19.896H43.2183V28.174H55.8904Z" fill="white"/>
<path d="M63.8184 26.2908C63.8184 25.1792 64.0604 24.1657 64.5442 23.2503C65.0281 22.3349 65.7539 21.5503 66.7216 20.8964C67.6894 20.2294 68.8925 19.7194 70.331 19.3663C71.7826 19.0002 73.4696 18.8171 75.392 18.8171C76.8174 18.8171 78.3148 18.9217 79.8841 19.1309C81.4664 19.3402 83.0946 19.6606 84.7685 20.0921C84.7031 19.3598 84.4808 18.6863 84.1015 18.0717C83.7223 17.4439 83.1927 16.9078 82.5126 16.4631C81.8457 16.0054 81.0349 15.6523 80.0802 15.4039C79.1387 15.1554 78.0663 15.0312 76.8632 15.0312C76.2093 15.0312 75.49 15.0704 74.7054 15.1489C73.9208 15.2273 73.11 15.345 72.273 15.5019C71.436 15.6589 70.6056 15.855 69.7817 16.0904C68.9709 16.3258 68.2125 16.607 67.5063 16.9339L65.7408 12.1672C66.617 11.8533 67.552 11.5656 68.5459 11.3041C69.5529 11.0425 70.5795 10.8202 71.6257 10.6371C72.6719 10.441 73.7181 10.2906 74.7643 10.186C75.8104 10.0813 76.8239 10.029 77.8048 10.029C82.1334 10.029 85.3504 11.1341 87.4559 13.3442C89.5614 15.5542 90.6141 18.9413 90.6141 23.5053V33.588H84.8077V31.4107C84.2062 31.7637 83.5458 32.0972 82.8265 32.4111C82.1203 32.7249 81.3487 32.9996 80.5118 33.235C79.6748 33.4703 78.7725 33.6534 77.8048 33.7842C76.8501 33.9281 75.8366 34 74.7643 34C72.9596 34 71.3707 33.8038 69.9975 33.4115C68.6375 33.0192 67.4997 32.4765 66.5843 31.7834C65.6689 31.0903 64.9758 30.2795 64.505 29.351C64.0473 28.4094 63.8184 27.3893 63.8184 26.2908ZM69.9387 26.0947C69.9387 26.4739 70.0368 26.8401 70.2329 27.1932C70.4291 27.5332 70.7429 27.8405 71.1745 28.1151C71.6061 28.3767 72.1553 28.5925 72.8223 28.7625C73.5023 28.9194 74.3196 28.9979 75.2743 28.9979C76.2943 28.9979 77.2817 28.9063 78.2363 28.7232C79.191 28.5402 80.0802 28.2982 80.9041 27.9974C81.728 27.6967 82.4734 27.3501 83.1404 26.9578C83.8073 26.5655 84.3631 26.1601 84.8077 25.7416V24.7215C83.9185 24.4731 83.0357 24.2638 82.1595 24.0938C81.2964 23.9238 80.466 23.793 79.6683 23.7015C78.8836 23.5969 78.1382 23.525 77.432 23.4857C76.7389 23.4465 76.1308 23.4269 75.6077 23.4269C74.5223 23.4269 73.62 23.4988 72.9007 23.6426C72.1815 23.7865 71.5995 23.9827 71.1549 24.2311C70.7102 24.4665 70.3964 24.7477 70.2133 25.0746C70.0302 25.4016 69.9387 25.7416 69.9387 26.0947Z" fill="white"/>
<path d="M90.99 26.487C92.5592 27.4286 94.2855 28.1217 96.1686 28.5663C98.0518 29.0109 99.9807 29.2333 101.955 29.2333C103.289 29.2333 104.401 29.1417 105.29 28.9586C106.179 28.7755 106.892 28.5402 107.428 28.2524C107.964 27.9647 108.344 27.6378 108.566 27.2716C108.788 26.9055 108.9 26.5328 108.9 26.1535C108.9 25.6043 108.658 25.1335 108.174 24.7412C107.703 24.3488 106.918 24.1527 105.82 24.1527C105.31 24.1527 104.761 24.1854 104.172 24.2507C103.584 24.3161 102.962 24.3881 102.308 24.4665C101.668 24.5319 100.994 24.5973 100.288 24.6627C99.5949 24.7281 98.8887 24.7608 98.1695 24.7608C96.6002 24.7608 95.2597 24.5908 94.1482 24.2507C93.0497 23.9107 92.1539 23.4465 91.4607 22.858C90.7676 22.2695 90.2642 21.5764 89.9503 20.7787C89.6364 19.9679 89.4795 19.0982 89.4795 18.1697C89.4795 16.9928 89.7541 15.9073 90.3034 14.9135C90.8526 13.9196 91.6373 13.063 92.6573 12.3437C93.6774 11.6114 94.9067 11.0425 96.3452 10.6371C97.7968 10.2317 99.4118 10.029 101.19 10.029C102.119 10.029 103.087 10.0879 104.094 10.2056C105.114 10.3102 106.114 10.454 107.095 10.6371C108.076 10.8202 109.017 11.036 109.92 11.2845C110.822 11.5199 111.62 11.7749 112.313 12.0495L110.488 16.5612C109.011 16.012 107.533 15.5804 106.055 15.2665C104.59 14.9396 103.08 14.7761 101.524 14.7761C100.438 14.7761 99.5164 14.8611 98.758 15.0312C98.0125 15.1881 97.4044 15.4039 96.9337 15.6785C96.4629 15.94 96.1163 16.2474 95.894 16.6004C95.6848 16.9405 95.5801 17.3001 95.5801 17.6793C95.5801 17.954 95.6325 18.2024 95.7371 18.4247C95.8548 18.6471 96.0378 18.8432 96.2863 19.0132C96.5479 19.1702 96.8813 19.2944 97.2867 19.3859C97.7052 19.4644 98.2152 19.5036 98.8168 19.5036C99.3661 19.5036 99.948 19.4709 100.563 19.4056C101.177 19.3402 101.818 19.2748 102.485 19.2094C103.152 19.1309 103.839 19.059 104.545 18.9936C105.264 18.9282 105.996 18.8955 106.742 18.8955C108.128 18.8955 109.338 19.059 110.371 19.3859C111.417 19.7129 112.28 20.1706 112.96 20.7591C113.64 21.3476 114.15 22.0407 114.49 22.8384C114.83 23.6361 115 24.5058 115 25.4473C115 26.6635 114.719 27.7947 114.157 28.8409C113.594 29.8871 112.757 30.796 111.646 31.5676C110.534 32.3261 109.148 32.9211 107.487 33.3527C105.839 33.7842 103.93 34 101.759 34C100.425 34 99.1372 33.915 97.8948 33.745C96.6525 33.588 95.469 33.3723 94.3443 33.0976C93.2197 32.8099 92.1604 32.4765 91.1665 32.0972C90.1857 31.718 89.2899 31.3126 88.4791 30.881L90.99 26.487Z" fill="white"/>
<path d="M110.904 21.936C110.904 20.3668 111.224 18.8694 111.865 17.4439C112.505 16.0054 113.427 14.7369 114.631 13.6384C115.834 12.5399 117.305 11.6637 119.044 11.0098C120.797 10.356 122.784 10.029 125.008 10.029C127.218 10.029 129.205 10.3625 130.971 11.0295C132.749 11.6833 134.253 12.5857 135.483 13.7365C136.725 14.8873 137.673 16.2408 138.327 17.797C138.994 19.3532 139.327 21.0206 139.327 22.7992C139.327 23.0215 139.321 23.2634 139.308 23.525C139.308 23.7734 139.295 24.0023 139.268 24.2115H117.377C117.625 24.9046 118.024 25.5389 118.573 26.1143C119.136 26.6897 119.835 27.1866 120.672 27.6051C121.509 28.0236 122.477 28.3505 123.576 28.5859C124.674 28.8082 125.89 28.9194 127.224 28.9194C128.558 28.9194 129.885 28.7821 131.206 28.5075C132.527 28.2198 133.789 27.8601 134.992 27.4286L136.954 31.8618C136.195 32.2149 135.424 32.5288 134.639 32.8034C133.867 33.0649 133.057 33.2873 132.207 33.4703C131.37 33.6404 130.487 33.7711 129.558 33.8627C128.643 33.9542 127.675 34 126.655 34C124.053 34 121.771 33.6861 119.809 33.0584C117.848 32.4307 116.206 31.5741 114.886 30.4887C113.565 29.4033 112.571 28.1282 111.904 26.6635C111.237 25.1989 110.904 23.623 110.904 21.936ZM133.168 19.6802C132.959 19.0394 132.632 18.4444 132.187 17.8951C131.755 17.3328 131.213 16.8489 130.559 16.4435C129.905 16.025 129.147 15.6981 128.283 15.4627C127.42 15.2273 126.472 15.1096 125.439 15.1096C124.341 15.1096 123.34 15.2339 122.438 15.4823C121.535 15.7308 120.744 16.0643 120.064 16.4827C119.384 16.9012 118.815 17.3851 118.358 17.9343C117.913 18.4836 117.586 19.0655 117.377 19.6802H133.168Z" fill="white"/>
</g>
<g id="Base Lend_2">
<path d="M147.478 2.80234H153.697V28.0091H171.528V33.4624H147.478V2.80234Z" fill="#3672F8"/>
<path d="M167.51 21.8104C167.51 20.2411 167.83 18.7437 168.471 17.3183C169.111 15.8798 170.033 14.6113 171.237 13.5128C172.44 12.4143 173.911 11.5381 175.65 10.8842C177.403 10.2303 179.39 9.90339 181.614 9.90339C183.824 9.90339 185.811 10.2369 187.577 10.9038C189.355 11.5577 190.859 12.46 192.089 13.6108C193.331 14.7617 194.279 16.1152 194.933 17.6714C195.6 19.2276 195.933 20.895 195.933 22.6735C195.933 22.8958 195.927 23.1378 195.914 23.3993C195.914 23.6478 195.901 23.8766 195.874 24.0859H173.983C174.231 24.779 174.63 25.4132 175.179 25.9886C175.742 26.5641 176.441 27.061 177.278 27.4795C178.115 27.898 179.083 28.2249 180.182 28.4603C181.28 28.6826 182.496 28.7938 183.83 28.7938C185.164 28.7938 186.491 28.6564 187.812 28.3818C189.133 28.0941 190.395 27.7345 191.598 27.3029L193.56 31.7362C192.801 32.0893 192.03 32.4031 191.245 32.6778C190.473 32.9393 189.663 33.1616 188.813 33.3447C187.976 33.5147 187.093 33.6455 186.164 33.737C185.249 33.8286 184.281 33.8743 183.261 33.8743C180.659 33.8743 178.377 33.5605 176.415 32.9328C174.454 32.305 172.812 31.4485 171.492 30.3631C170.171 29.2776 169.177 28.0026 168.51 26.5379C167.843 25.0732 167.51 23.4974 167.51 21.8104ZM189.774 19.5545C189.565 18.9137 189.238 18.3187 188.793 17.7695C188.361 17.2071 187.819 16.7233 187.165 16.3179C186.511 15.8994 185.753 15.5725 184.889 15.3371C184.026 15.1017 183.078 14.984 182.045 14.984C180.947 14.984 179.946 15.1082 179.044 15.3567C178.141 15.6052 177.35 15.9386 176.67 16.3571C175.99 16.7756 175.421 17.2595 174.964 17.8087C174.519 18.358 174.192 18.9399 173.983 19.5545H189.774Z" fill="#3672F8"/>
<path d="M193.955 10.3153H199.762V12.2769C201.305 11.4008 202.776 10.7861 204.175 10.433C205.588 10.0799 206.967 9.90339 208.314 9.90339C210.08 9.90339 211.714 10.1649 213.218 10.688C214.722 11.1981 216.023 11.9631 217.122 12.9831C218.22 14.0032 219.077 15.2782 219.692 16.8083C220.319 18.3253 220.633 20.0842 220.633 22.085V33.4624H214.846V23.0266C214.846 21.7581 214.663 20.6269 214.297 19.633C213.944 18.626 213.428 17.7826 212.748 17.1025C212.081 16.4094 211.263 15.8863 210.296 15.5332C209.341 15.1671 208.268 14.984 207.078 14.984C206.451 14.984 205.803 15.0494 205.136 15.1801C204.483 15.3109 203.835 15.5005 203.194 15.749C202.567 15.9844 201.959 16.2852 201.37 16.6514C200.782 17.0044 200.245 17.4098 199.762 17.8676V33.4624H193.955V10.3153Z" fill="#3672F8"/>
<path d="M217.753 21.9869C217.753 20.143 218.099 18.4822 218.792 17.0044C219.486 15.5136 220.44 14.2451 221.656 13.1989C222.886 12.1396 224.337 11.3288 226.011 10.7665C227.698 10.1911 229.522 9.90339 231.484 9.90339C232.321 9.90339 233.145 9.9557 233.956 10.0603C234.78 10.1649 235.564 10.3088 236.31 10.4919C237.068 10.675 237.774 10.8973 238.428 11.1588C239.095 11.4073 239.684 11.6819 240.194 11.9827V0.919189H246V33.4624H240.194V31.285C239.684 31.6381 239.082 31.9716 238.389 32.2854C237.696 32.5993 236.95 32.8739 236.153 33.1093C235.355 33.3447 234.525 33.5278 233.661 33.6586C232.811 33.8024 231.968 33.8743 231.131 33.8743C229.169 33.8743 227.365 33.5866 225.717 33.0112C224.082 32.4358 222.676 31.625 221.499 30.5788C220.322 29.5326 219.401 28.2837 218.734 26.8321C218.08 25.3675 217.753 23.7524 217.753 21.9869ZM223.853 21.9869C223.853 22.9154 224.036 23.7916 224.403 24.6155C224.782 25.4394 225.318 26.1652 226.011 26.7929C226.717 27.4075 227.561 27.898 228.542 28.2641C229.536 28.6172 230.647 28.7938 231.876 28.7938C232.661 28.7938 233.446 28.7218 234.23 28.578C235.015 28.4211 235.767 28.2053 236.486 27.9306C237.219 27.656 237.899 27.3225 238.526 26.9302C239.167 26.5379 239.723 26.0998 240.194 25.6159V17.5929C239.605 17.1221 238.984 16.7233 238.33 16.3963C237.676 16.0694 237.009 15.8013 236.329 15.5921C235.649 15.3828 234.963 15.2324 234.27 15.1409C233.576 15.0363 232.903 14.984 232.249 14.984C230.915 14.984 229.725 15.1671 228.679 15.5332C227.646 15.8863 226.77 16.3767 226.05 17.0044C225.344 17.6322 224.802 18.371 224.422 19.2211C224.043 20.0711 223.853 20.9931 223.853 21.9869Z" fill="#3672F8"/>
</g>
</g>
<g id="Group 570">
<path id="Rectangle 4412" d="M0 0H27C27 8.83656 19.8366 16 11 16H0V0Z" fill="#3672F8"/>
<path id="Rectangle 4413" d="M0 34H27C27 25.1634 19.8366 18 11 18H0V34Z" fill="#3672F8"/>
</g>
</g>
</svg>
