<svg width="25" height="24" viewBox="0 0 25 24" fill="none" xmlns="http://www.w3.org/2000/svg">
<g id="LK6D38AYFNLMF 1" clip-path="url(#clip0_75_5299)">
<path id="Vector" d="M0.388672 6C0.388672 4.34314 1.73182 3 3.38867 3H21.3887C23.0456 3 24.3887 4.34314 24.3887 6V18C24.3887 19.6569 23.0456 21 21.3887 21H3.38867C1.73182 21 0.388672 19.6569 0.388672 18V6ZM3.38867 4.5C2.56025 4.5 1.88867 5.17158 1.88867 6V6.32535L12.3887 12.6253L22.8887 6.32535V6C22.8887 5.17158 22.2171 4.5 21.3887 4.5H3.38867ZM22.8887 8.07465L15.752 12.3567L22.8887 16.6702V8.07465ZM22.8369 18.3918L14.2967 13.2298L12.3887 14.3747L10.4806 13.2298L1.94036 18.3918C2.11264 19.0302 2.69579 19.5 3.38867 19.5H21.3887C22.0815 19.5 22.6647 19.0302 22.8369 18.3918ZM1.88867 16.6702L9.0254 12.3567L1.88867 8.07465V16.6702Z" fill="white"/>
</g>
<defs>
<clipPath id="clip0_75_5299">
<rect width="24" height="24" fill="white" transform="translate(0.388672)"/>
</clipPath>
</defs>
</svg>
