<svg width="271" height="53" viewBox="0 0 271 53" fill="none" xmlns="http://www.w3.org/2000/svg">
<path d="M237.848 27.057C236.451 26.1465 234.928 25.4872 233.484 24.6709C232.542 24.1529 231.537 23.682 230.721 23.007C229.34 21.8768 229.622 19.632 231.066 18.6588C233.154 17.2774 236.592 18.0465 236.969 20.8721C236.969 20.9349 237.031 20.982 237.094 20.982H240.234C240.312 20.982 240.375 20.9192 240.344 20.825C240.316 19.9362 240.097 19.0639 239.701 18.2674C239.306 17.471 238.743 16.7692 238.052 16.2099C236.774 15.2247 235.207 14.6893 233.594 14.6873C225.305 14.6873 224.536 23.4622 229.01 26.225C229.528 26.539 233.908 28.7366 235.446 29.6942C237.016 30.6517 237.487 32.4099 236.827 33.7756C236.199 35.0471 234.63 35.9261 233.029 35.8163C231.302 35.7221 229.952 34.7802 229.481 33.3203C229.402 33.0535 229.355 32.5355 229.355 32.3314C229.352 32.2992 229.338 32.2692 229.315 32.2464C229.292 32.2235 229.262 32.2092 229.23 32.2058H225.823C225.776 32.2058 225.713 32.2686 225.713 32.3314C225.713 34.7802 226.326 36.1459 227.99 37.386C229.559 38.5633 231.286 39.0657 233.044 39.0657C237.706 39.0657 240.108 36.4285 240.579 33.7128C241.019 31.0442 240.234 28.6424 237.848 27.057ZM89.9761 15.1425H86.8052C86.7818 15.1454 86.7594 15.154 86.7402 15.1678C86.721 15.1815 86.7056 15.1998 86.6953 15.221L83.9011 24.4198C83.9011 24.4531 83.8879 24.485 83.8643 24.5086C83.8408 24.5321 83.8088 24.5454 83.7755 24.5454C83.7422 24.5454 83.7103 24.5321 83.6867 24.5086C83.6632 24.485 83.6499 24.4531 83.6499 24.4198L80.8558 15.221C80.8401 15.1582 80.793 15.1425 80.7302 15.1425H75.5343C75.4715 15.1425 75.4087 15.2053 75.4087 15.2524V38.736C75.4087 38.7988 75.4715 38.8616 75.5343 38.8616H78.9407C79.0034 38.8616 79.0662 38.7988 79.0662 38.736V20.8721C79.0662 20.7308 79.2703 20.7151 79.3017 20.8407L82.1273 30.1023L82.3313 30.7302C82.3313 30.8087 82.3784 30.8244 82.4412 30.8244H85.0627C85.1255 30.8244 85.1569 30.7773 85.1726 30.7459L85.3767 30.0866L88.2023 20.825C88.2337 20.6994 88.4377 20.7308 88.4377 20.8721V38.7203C88.4377 38.7831 88.5005 38.8459 88.5633 38.8459H91.9697C92.0325 38.8459 92.0953 38.7831 92.0953 38.7203V15.2524C92.0953 15.2053 92.0325 15.1425 91.9697 15.1425H89.9761ZM185.7 15.1425C185.674 15.1427 185.648 15.1501 185.626 15.164C185.604 15.1778 185.586 15.1976 185.575 15.221L182.78 24.4198C182.78 24.4531 182.767 24.485 182.744 24.5086C182.72 24.5321 182.688 24.5454 182.655 24.5454C182.622 24.5454 182.59 24.5321 182.566 24.5086C182.543 24.485 182.529 24.4531 182.529 24.4198L179.735 15.221C179.735 15.1582 179.688 15.1425 179.625 15.1425H174.445C174.382 15.1425 174.319 15.2053 174.319 15.2524V38.736C174.319 38.7988 174.382 38.8616 174.445 38.8616H177.851C177.898 38.8616 177.961 38.7988 177.961 38.736V20.8721C177.961 20.7308 178.165 20.7151 178.212 20.8407L181.038 30.1023L181.226 30.7302C181.258 30.8087 181.289 30.8244 181.352 30.8244H183.958C183.984 30.8227 184.008 30.8146 184.03 30.8009C184.052 30.7872 184.07 30.7683 184.083 30.7459L184.287 30.0866L187.113 20.825C187.144 20.6994 187.348 20.7308 187.348 20.8721V38.7203C187.348 38.7831 187.411 38.8459 187.474 38.8459H190.88C190.943 38.8459 191.006 38.7831 191.006 38.7203V15.2524C191.006 15.2053 190.943 15.1425 190.88 15.1425H185.7ZM141.763 15.1425H125.672C125.625 15.1425 125.563 15.2053 125.563 15.2524V18.2035C125.563 18.2663 125.625 18.3291 125.672 18.3291H131.904V38.736C131.904 38.8145 131.967 38.8773 132.014 38.8773H135.421C135.484 38.8773 135.546 38.8145 135.546 38.7517V18.3134H141.763C141.825 18.3134 141.888 18.2506 141.888 18.1878V15.2524C141.888 15.2053 141.857 15.1425 141.763 15.1425ZM161.856 38.8616H164.964C165.042 38.8616 165.105 38.7674 165.074 38.7046L158.669 15.1425C158.669 15.0797 158.622 15.0483 158.559 15.0483H154.085C154.06 15.0526 154.037 15.0637 154.017 15.0803C153.998 15.0968 153.983 15.1183 153.975 15.1425L147.571 38.6889C147.539 38.7674 147.602 38.8459 147.681 38.8459H150.789C150.851 38.8459 150.883 38.8145 150.914 38.7674L152.767 31.9232C152.782 31.8605 152.829 31.8448 152.892 31.8448H159.736C159.799 31.8448 159.846 31.8762 159.862 31.9232L161.714 38.7674C161.746 38.8145 161.808 38.8616 161.84 38.8616H161.856ZM153.724 28.4855L156.204 19.3024C156.204 19.2691 156.218 19.2371 156.241 19.2136C156.265 19.19 156.297 19.1768 156.33 19.1768C156.363 19.1768 156.395 19.19 156.419 19.2136C156.442 19.2371 156.456 19.2691 156.456 19.3024L158.936 28.4855C158.967 28.564 158.904 28.6424 158.826 28.6424H153.85C153.756 28.6424 153.693 28.564 153.724 28.4855ZM214.709 38.8616H217.818C217.896 38.8616 217.959 38.7674 217.943 38.7046L211.538 15.1268C211.507 15.064 211.476 15.0326 211.413 15.0326H206.97C206.943 15.0341 206.916 15.0439 206.893 15.0606C206.871 15.0774 206.854 15.1004 206.845 15.1268L200.44 38.6732C200.425 38.7517 200.487 38.8302 200.566 38.8302H203.658C203.721 38.8302 203.768 38.7988 203.784 38.7517L205.636 31.9075C205.668 31.8448 205.699 31.8291 205.762 31.8291H212.622C212.669 31.8291 212.716 31.8605 212.731 31.9075L214.6 38.7517C214.6 38.7988 214.662 38.8459 214.709 38.8459V38.8616ZM206.578 28.4855L209.074 19.3024C209.083 19.2783 209.099 19.2576 209.12 19.243C209.141 19.2283 209.166 19.2205 209.192 19.2205C209.217 19.2205 209.242 19.2283 209.263 19.243C209.284 19.2576 209.301 19.2783 209.309 19.3024L211.805 28.4855C211.805 28.564 211.758 28.6424 211.68 28.6424H206.704C206.625 28.6424 206.547 28.564 206.578 28.4855ZM105.925 35.3767V28.093C105.925 28.0302 105.972 27.9674 106.035 27.9674H115.108C115.171 27.9674 115.234 27.9047 115.234 27.8576V24.9221C115.23 24.89 115.216 24.86 115.193 24.8371C115.17 24.8143 115.14 24.7999 115.108 24.7965H106.05C105.988 24.7965 105.941 24.7337 105.941 24.6709V18.4547C105.941 18.3919 105.988 18.3291 106.05 18.3291H116.379C116.442 18.3291 116.505 18.2663 116.505 18.2035V15.2838C116.502 15.2516 116.487 15.2216 116.464 15.1988C116.442 15.1759 116.412 15.1616 116.379 15.1582H102.409C102.376 15.1616 102.346 15.1759 102.324 15.1988C102.301 15.2216 102.286 15.2516 102.283 15.2838V38.736C102.283 38.7988 102.346 38.8616 102.409 38.8616H116.803C116.866 38.8616 116.929 38.7988 116.929 38.736V35.6279C116.926 35.5957 116.911 35.5657 116.888 35.5429C116.865 35.52 116.835 35.5057 116.803 35.5023H106.035C105.972 35.4866 105.941 35.4395 105.941 35.361L105.925 35.3767ZM268.96 38.6575L257.187 26.5076C257.169 26.4853 257.16 26.4576 257.16 26.4291C257.16 26.4005 257.169 26.3729 257.187 26.3506L267.783 15.3623C267.81 15.3498 267.831 15.327 267.841 15.2991C267.852 15.2711 267.851 15.2402 267.838 15.2131C267.826 15.1861 267.803 15.1651 267.775 15.1548C267.747 15.1445 267.716 15.1457 267.689 15.1582H263.356C263.309 15.1582 263.294 15.1739 263.278 15.2053L254.283 24.514C254.266 24.5281 254.245 24.5374 254.223 24.541C254.201 24.5446 254.179 24.5422 254.158 24.5343C254.137 24.5263 254.119 24.5129 254.105 24.4956C254.091 24.4782 254.082 24.4575 254.079 24.4355V15.2838C254.076 15.2516 254.061 15.2216 254.038 15.1988C254.016 15.1759 253.986 15.1616 253.953 15.1582H250.547C250.515 15.1616 250.485 15.1759 250.462 15.1988C250.439 15.2216 250.425 15.2516 250.422 15.2838V38.7517C250.422 38.8145 250.484 38.8773 250.547 38.8773H253.953C254.016 38.8773 254.079 38.8145 254.079 38.7517V28.4227C254.079 28.3128 254.22 28.2657 254.283 28.3442L264.487 38.8302C264.503 38.851 264.525 38.8672 264.549 38.8773H268.898C268.976 38.8616 269.055 38.7203 268.96 38.6575Z" fill="white"/>
<path d="M52.1447 2.50586L31.5181 17.7639L35.364 8.76921L52.1447 2.50586Z" fill="#E17726" stroke="#E17726" stroke-width="0.392441" stroke-linecap="round" stroke-linejoin="round"/>
<path d="M4.58138 2.50586L25.0197 17.8895L21.3621 8.78491L4.58138 2.50586ZM44.7202 37.8726L39.226 46.2551L50.9836 49.4888L54.3429 38.061L44.7202 37.8726ZM2.39941 38.061L5.74301 49.4888L17.4691 46.2551L12.0064 37.8726L2.39941 38.061Z" fill="#E27625" stroke="#E27625" stroke-width="0.392441" stroke-linecap="round" stroke-linejoin="round"/>
<path d="M16.8413 23.7135L13.5762 28.6426L25.1924 29.1763L24.8157 16.6653L16.8413 23.7292V23.7135ZM39.8854 23.7292L31.7854 16.5083L31.5186 29.1763L43.1348 28.6426L39.8854 23.7292ZM17.4692 46.2553L24.5174 42.8646L18.4581 38.1553L17.4692 46.2553ZM32.2249 42.8489L39.2261 46.2553L38.2842 38.1396L32.2249 42.8489Z" fill="#E27625" stroke="#E27625" stroke-width="0.392441" stroke-linecap="round" stroke-linejoin="round"/>
<path d="M39.2257 46.2549L32.2245 42.8643L32.7896 47.4166L32.7268 49.3474L39.2257 46.2549ZM17.4688 46.2549L23.999 49.3474L23.9519 47.4166L24.517 42.8643L17.4688 46.2549Z" fill="#D5BFB2" stroke="#D5BFB2" stroke-width="0.392441" stroke-linecap="round" stroke-linejoin="round"/>
<path d="M24.1089 35.1255L18.3008 33.4302L22.4136 31.5465L24.1246 35.1255H24.1089ZM32.6013 35.1255L34.3281 31.5308L38.4565 33.4145L32.6013 35.1412V35.1255Z" fill="#233447" stroke="#233447" stroke-width="0.392441" stroke-linecap="round" stroke-linejoin="round"/>
<path d="M17.4686 46.2553L18.489 37.8728L12.0059 38.0612L17.4686 46.2553ZM38.2366 37.8728L39.2255 46.2553L44.7197 38.0612L38.2366 37.8728ZM43.1499 28.6426L31.5337 29.1763L32.6011 35.1414L34.3279 31.5309L38.4564 33.4147L43.1499 28.6426ZM18.3006 33.4304L22.4134 31.5466L24.1244 35.1257L25.2076 29.1606L13.5913 28.6426L18.3006 33.4304Z" fill="#CC6228" stroke="#CC6228" stroke-width="0.392441" stroke-linecap="round" stroke-linejoin="round"/>
<path d="M13.5918 28.6426L18.4581 38.1396L18.3011 33.4304L13.5918 28.6426ZM38.4568 33.4304L38.2685 38.1396L43.1347 28.6426L38.4568 33.4304ZM25.208 29.1763L24.1092 35.1414L25.4906 42.1739L25.8046 32.8966L25.208 29.1763ZM31.5185 29.1763L30.9534 32.8809L31.2359 42.1739L32.6016 35.1257L31.5185 29.1606V29.1763Z" fill="#E27525" stroke="#E27525" stroke-width="0.392441" stroke-linecap="round" stroke-linejoin="round"/>
<path d="M32.6014 35.1255L31.2357 42.1738L32.2246 42.8644L38.2682 38.1552L38.4566 33.4302L32.6014 35.1255ZM18.3009 33.4302L18.4578 38.1395L24.5171 42.8488L25.4904 42.1738L24.1247 35.1255L18.2852 33.4302H18.3009Z" fill="#F5841F" stroke="#F5841F" stroke-width="0.392441" stroke-linecap="round" stroke-linejoin="round"/>
<path d="M32.7425 49.3476L32.7896 47.4168L32.2559 46.9772H24.4699L23.9519 47.4168L23.999 49.3476L17.4688 46.2551L19.7606 48.1388L24.3914 51.3255H32.3187L36.9652 48.1231L39.2257 46.2551L32.7268 49.3476H32.7425Z" fill="#C0AC9D" stroke="#C0AC9D" stroke-width="0.392441" stroke-linecap="round" stroke-linejoin="round"/>
<path d="M32.2248 42.8488L31.2358 42.1738H25.4905L24.5173 42.8645L23.9521 47.4168L24.4702 46.9773H32.2562L32.7899 47.4168L32.2248 42.8645V42.8488Z" fill="#161616" stroke="#161616" stroke-width="0.392441" stroke-linecap="round" stroke-linejoin="round"/>
<path d="M53.0243 18.7529L54.751 10.3547L52.1452 2.50586L32.2092 17.2616L39.8853 23.7133L50.7167 26.8686L53.1027 24.0901L52.0667 23.3366L53.715 21.8296L52.4591 20.8564L54.1074 19.6006L53.0086 18.7529H53.0243ZM1.97559 10.339L3.73372 18.7529L2.60349 19.5849L4.28314 20.8407L3.02733 21.8296L4.65988 23.3366L3.62384 24.0901L6.00988 26.8686L16.8412 23.729L24.5174 17.2459L4.58139 2.50586L1.97559 10.339Z" fill="#763E1A" stroke="#763E1A" stroke-width="0.392441" stroke-linecap="round" stroke-linejoin="round"/>
<path d="M50.7167 26.8686L39.8853 23.7291L43.1504 28.6425L38.2842 38.1395L44.7202 38.0611H54.3429L50.7167 26.8686ZM16.8412 23.7134L6.00987 26.8686L2.39941 38.0611H12.0221L18.4581 38.1395L13.5918 28.6425L16.8569 23.7134H16.8412ZM31.5185 29.1762L32.2249 17.246L35.3644 8.76929H21.3621L24.5017 17.246L25.2081 29.1762L25.4749 32.9122V42.1738H31.2359L31.2673 32.9122L31.5185 29.1762Z" fill="#F5841F" stroke="#F5841F" stroke-width="0.392441" stroke-linecap="round" stroke-linejoin="round"/>
</svg>
