<svg width="279" height="66" viewBox="0 0 279 66" fill="none" xmlns="http://www.w3.org/2000/svg">
<g clip-path="url(#clip0_75_5230)">
<path d="M42.11 36.6891L65.4859 32.8372L42.11 28.9853L55.9167 9.73575L36.6671 23.5424L32.8152 0.166504L28.9666 23.5424L9.71376 9.73575L23.5204 28.9853L0.144531 32.8372L23.5204 36.6891L9.71376 55.9386L28.9666 42.132L32.8152 65.5079L36.6671 42.132L55.9167 55.9386L42.11 36.6891Z" fill="white"/>
<path d="M161.849 21.4552C159.69 20.3738 157.217 19.8347 154.436 19.8347H143.041V31.3935H147.882V23.9316H154.214C156.125 23.9316 157.808 24.2975 159.262 25.0293C160.716 25.7611 161.833 26.8033 162.614 28.1591C163.395 29.5117 163.787 31.0832 163.787 32.8703C163.787 34.6573 163.395 36.2288 162.614 37.5814C161.833 38.9339 160.716 39.9761 159.262 40.7112C157.808 41.443 156.125 41.8089 154.214 41.8089H147.882V34.3241H143.041V45.9059H154.436C157.217 45.9059 159.686 45.3668 161.849 44.2854C164.009 43.204 165.685 41.6783 166.877 39.705C168.07 37.7316 168.664 35.4545 168.664 32.8703C168.664 30.2893 168.07 28.0089 166.877 26.0355C165.685 24.0622 164.009 22.5332 161.849 21.4552ZM119.08 19.8347L107.348 45.9059H112.34L114.911 39.8716H127.947L130.554 45.9059H135.618L123.85 19.8347H119.08ZM116.548 36.072L121.426 24.6764L126.343 36.072H116.548ZM98.9484 34.1738C99.9023 32.7592 100.383 31.0701 100.383 29.1099C100.383 27.1986 99.935 25.5488 99.0431 24.157C98.1479 22.7652 96.864 21.7002 95.188 20.9553C93.512 20.2104 91.5452 19.838 89.2844 19.838H78.5586V31.3968H83.4004V23.9348H89.0622C91.1727 23.9348 92.7736 24.3824 93.8681 25.2743C94.9593 26.1695 95.5081 27.4469 95.5081 29.1099C95.5081 30.7728 94.9625 32.06 93.8681 32.965C92.7736 33.8732 91.1727 34.3241 89.0622 34.3241H78.5586V45.9059H83.4004V38.3067H89.2844C89.732 38.3067 90.0652 38.2936 90.2906 38.2707L95.6159 45.9059H100.83L94.8351 37.3396C96.6189 36.6437 97.9911 35.5885 98.9484 34.1738ZM177.812 45.9059H182.654V19.8347H177.812V45.9059ZM201.822 19.8347L190.09 45.9059H195.082L197.653 39.8716H210.688L213.296 45.9059H218.36L206.592 19.8347H201.822ZM199.29 36.072L204.168 24.6764L209.084 36.072H199.29ZM256.519 19.8347V23.9316H265.16V45.9059H270.001V23.9316H278.644V19.8347H256.519ZM244.144 37.4899L229.768 19.8347H225.783V45.9059H230.587V28.2506L244.963 45.9059H248.948V19.8347H244.144V37.4899Z" fill="white"/>
</g>
<defs>
<clipPath id="clip0_75_5230">
<rect width="278.79" height="65.3414" fill="white" transform="translate(0 0.166504)"/>
</clipPath>
</defs>
</svg>
