<svg width="25" height="24" viewBox="0 0 25 24" fill="none" xmlns="http://www.w3.org/2000/svg">
<g id="LK6D3PGWW5MNJ 1">
<path id="Vector" d="M3.27734 3C3.27734 1.34315 4.62049 0 6.27734 0H18.2773C19.9342 0 21.2773 1.34314 21.2773 3V23.25C21.2773 23.5266 21.1251 23.7807 20.8812 23.9112C20.6373 24.0417 20.3415 24.0275 20.1112 23.874L12.2773 19.6514L4.44337 23.874C4.21322 24.0275 3.91732 24.0417 3.67345 23.9112C3.42958 23.7807 3.27734 23.5266 3.27734 23.25V3ZM6.27734 1.5C5.44892 1.5 4.77734 2.17158 4.77734 3V21.8485L11.8613 18.126C12.1132 17.958 12.4414 17.958 12.6934 18.126L19.7773 21.8485V3C19.7773 2.17158 19.1058 1.5 18.2773 1.5H6.27734Z" fill="white"/>
</g>
</svg>
