<svg width="25" height="24" viewBox="0 0 25 24" fill="none" xmlns="http://www.w3.org/2000/svg">
<g id="Frame">
<path id="Vector" d="M8.63877 12.6469L17.067 20.0625C17.1643 20.1487 17.2825 20.2081 17.4097 20.235C17.5371 20.2617 17.6691 20.2548 17.793 20.2152C17.9169 20.1754 18.0283 20.1042 18.1164 20.0083C18.2043 19.9126 18.2659 19.7955 18.295 19.6687L21.82 4.27503C21.8496 4.14246 21.8425 4.00434 21.7998 3.87544C21.757 3.74653 21.6799 3.63168 21.577 3.54312C21.474 3.45457 21.3489 3.39565 21.2151 3.37264C21.0811 3.34965 20.9436 3.36343 20.817 3.41253L3.51065 10.2094C2.8169 10.4813 2.91065 11.4938 3.6419 11.6438L8.63877 12.6469Z" stroke="white" stroke-width="1.5" stroke-linecap="round" stroke-linejoin="round"/>
<path id="Vector_2" d="M8.63867 12.647L21.3981 3.4314" stroke="white" stroke-width="1.5" stroke-linecap="round" stroke-linejoin="round"/>
<path id="Vector_3" d="M12.848 16.3498L9.92305 19.2748C9.81869 19.3809 9.68519 19.4533 9.53951 19.4833C9.39383 19.5132 9.24256 19.4991 9.10489 19.4428C8.96723 19.3866 8.84941 19.2907 8.7664 19.1673C8.68337 19.0438 8.63893 18.8986 8.63867 18.7498V12.6467" stroke="white" stroke-width="1.5" stroke-linecap="round" stroke-linejoin="round"/>
</g>
</svg>
