<svg width="23" height="21" viewBox="0 0 23 21" fill="none" xmlns="http://www.w3.org/2000/svg">
<path id="path22" d="M22.1694 4.33658C21.3766 4.68723 20.5239 4.92422 19.6293 5.03099C20.5424 4.48522 21.2434 3.62144 21.5737 2.5924C20.7192 3.09772 19.7728 3.46425 18.7648 3.66182C17.9583 2.80536 16.8087 2.27002 15.5365 2.27002C13.0935 2.27002 11.1134 4.24338 11.1134 6.67773C11.1134 7.02333 11.1522 7.35985 11.2279 7.68225C7.55164 7.49867 4.29241 5.74331 2.11076 3.07681C1.73 3.72752 1.51189 4.48459 1.51189 5.29253C1.51189 6.82199 2.29246 8.17092 3.47967 8.96167C2.75462 8.93908 2.0725 8.74071 1.47611 8.41032C1.47526 8.4289 1.47525 8.44721 1.47525 8.46565C1.47525 10.6017 3.00014 12.3828 5.02344 12.788C4.65259 12.8888 4.26191 12.942 3.85846 12.942C3.57316 12.942 3.29653 12.9151 3.02599 12.8635C3.58924 14.6146 5.22247 15.8891 7.15838 15.9248C5.64331 17.1072 3.73638 17.8115 1.66388 17.8115C1.30709 17.8115 0.954716 17.7906 0.608398 17.7501C2.56671 19.0007 4.89142 19.7302 7.38962 19.7302C15.5254 19.7302 19.9739 13.0139 19.9739 7.18859C19.9739 6.99757 19.9694 6.80786 19.9614 6.61882C20.8253 5.99686 21.5751 5.22073 22.1684 4.33662" stroke="white" stroke-width="1.5"/>
</svg>
